<?xml version="1.0" encoding="utf-8"?>
<!-- Generator: Adobe Illustrator 26.3.1, SVG Export Plug-In . SVG Version: 6.00 Build 0)  -->
<svg version="1.1" id="Layer_1" xmlns="http://www.w3.org/2000/svg" xmlns:xlink="http://www.w3.org/1999/xlink" x="0px" y="0px"
	 viewBox="0 0 594 182.6" style="enable-background:new 0 0 594 182.6;" xml:space="preserve">
<style type="text/css">
	.st0{fill:#ECF3E6;}
</style>
<g id="Layer_2_00000086680704136731747150000015447794705451046564_">
	<g id="Layer_1-2">
		<path class="st0" d="M62.4,44.3c-12.3,1.9-23.7-5.4-21.2-16.4c1.3-5.7,14-21.5,20.3-25.4c16.1-10,16.3,13.1,16.7,20.6
			C78.7,31.4,75,42.1,62.4,44.3z"/>
		<path class="st0" d="M3.2,181.3c-7.8-4-0.6-23.2,12.5-38.7c11.8-13.8,15.9-30.2,15.8-44.8s10-40,30.4-36.5
			c24.1,4.1,11.4,55.1,4.4,71.1s-15,27.7-23.5,34.3C37.3,171.1,14.9,187.3,3.2,181.3z"/>
		<path class="st0" d="M563.4,141.4c-25,0-26-25.4-22.5-42.9c2.9-14.7,9.9-29.4,13.8-43.8s4.1-38.1,14.3-49.9
			c12.2-14.1,15.7,7,17.9,18.6c2.5,13.3,2.9,50.4,4.6,63.7C594.4,111,601.9,141.3,563.4,141.4z"/>
		<path class="st0" d="M130,132.3l-1-0.1h-0.6c-1.3,0-2.6-0.1-3.8-0.3l-0.5-0.1l-1.4-0.3c-0.6-0.1-1.2-0.3-1.8-0.6l-0.5-0.2l0.2,0.1
			l-0.8-0.3l-0.8-0.3c-1.5-0.6-3.1-1.2-4.6-1.8c-1-0.5-1.9-1-2.8-1.7l-0.7-0.5c-1.8-1.2-3.5-2.7-4.9-4.4c-0.4-0.5-0.8-1.1-1.1-1.6
			l-0.3-0.5l-0.5-0.8c-0.3-0.5-0.6-0.9-0.9-1.4c-0.8-1.2-1.4-2.6-1.8-4c-0.2-0.6-0.3-1.1-0.5-1.6c-0.2-0.6-0.4-1.2-0.6-1.9v-0.2
			c-0.1-0.5-0.2-1-0.3-1.5c-0.1-0.7-0.2-1.3-0.2-2v-0.4c0-0.7,0-1.4,0.1-2.1v-0.3c0.1-0.6,0.1-1.2,0.2-1.8c0.2-1.2,0.5-2.4,0.8-3.6
			c0.4-1.4,1-2.7,1.8-3.8c1.6-2,3.4-3.9,5.4-5.5c0.9-0.7,1.8-1.4,2.6-2l0.9-0.6c0.5-0.5,1.1-0.9,1.7-1.3c0.5-0.3,1-0.6,1.5-0.8
			l0.6-0.3l0.9-0.5l0.8-0.5l0.5-0.3c0.7-0.5,1.4-0.9,2.2-1.2c0.4-0.2,0.8-0.4,1.2-0.7c1.2-0.7,2.4-1.3,3.7-1.8
			c1.2-0.5,2.4-0.9,3.5-1.3c0.5-0.2,1-0.4,1.5-0.6c0.7-0.3,1.5-0.6,2.3-0.8l0.7-0.2c1.3-0.4,2.7-0.7,4.1-1c1.2-0.2,2.4-0.3,3.6-0.3
			h0.8c1.3,0,2.7,0.1,4,0.2c1.4,0.1,2.7,0.4,4,0.7c1.5,0.5,3,1.1,4.3,2c0.6,0.4,1.1,0.8,1.6,1.2l0.6,0.5c0.5,0.3,0.9,0.6,1.3,1
			c0.9,0.9,1.7,1.8,2.5,2.8l0.3,0.3c1,1.2,2,2.5,2.8,3.9c0.8,1.4,1.3,2.8,1.7,4.3l0.1,0.7c0.3,1.3,0.5,2.6,0.7,3.9
			c0,0.6,0,1.2-0.1,1.8V98c-0.1,1-0.2,2-0.4,3c-0.1,0.4-0.2,0.9-0.3,1.3l-0.1,0.2c-0.2,1-0.6,2-1,3l-0.4,0.8
			c-0.3,0.6-0.6,1.2-0.8,1.8c-0.3,0.6-0.6,1.2-1,1.7l-0.4,0.6c-0.3,0.5-0.6,1-0.9,1.4c-0.7,1.2-1.4,2.4-2.2,3.5l0.1-0.2l-0.4,0.6
			c-0.4,0.6-0.9,1.2-1.4,1.8c-0.6,0.8-1.3,1.5-1.8,2.3c-1.8,2.2-3.8,4.2-6.1,6l-0.1,0.1c-0.9,0.8-1.9,1.6-3,2.2
			c-1.1,0.6-2.1,1.2-3.3,1.7c-0.6,0.3-1.3,0.5-1.9,0.7l-0.5,0.2l-0.9,0.3l-0.9,0.3c-1.4,0.5-2.9,0.8-4.5,0.9c-0.3,0-0.6,0-0.9,0
			C131,132.3,130.5,132.3,130,132.3z"/>
		<path class="st0" d="M286.4,132c-1.3-0.3-2.5-0.7-3.6-1.3c-1-0.4-1.9-0.9-2.8-1.5c-1.6-1.1-3-2.5-4-4.2c-0.7-1.3-1.3-2.7-1.7-4.2
			c-0.3-1.2-0.5-2.3-0.5-3.5c0-1.1,0-2.2,0.1-3.3c0-0.7,0.1-1.4,0.1-2.1c0.1-1.2,0.1-2.4,0.3-3.6l0.1-0.8c0.2-2.1,0.5-4.2,0.9-6.3
			l0.2-0.8c0.5-2.2,0.9-4.4,1.5-6.6l0.3-1.3c0.4-1.7,0.8-3.3,1.2-5c0.1-0.5,0.3-1.1,0.4-1.6l0.2-0.9l0.1-0.6
			c0.1-0.5,0.2-0.9,0.4-1.4s0.4-1.2,0.6-1.7c0.2-0.5,0.4-0.9,0.7-1.4c0.7-1.1,1.6-2,2.8-2.6c0.9-0.5,2-0.8,3-0.8c0.2,0,0.3,0,0.5,0
			c0.6,0.1,1.2,0.3,1.8,0.6c0.7,0.3,1.2,0.8,1.7,1.4c0.4,0.5,0.7,1.1,0.9,1.8c0.1,0.4,0.1,0.7,0.2,1.1c0,0.2,0.1,0.5,0.1,0.7
			c0,0.1,0,0.2,0,0.3l0.4-0.2l0.2-0.2c0.7-0.4,1.4-0.7,2.2-1.1l0.6-0.3c2-1,4.1-1.8,6.3-2.4c0.8-0.2,1.6-0.4,2.3-0.6
			c0.6-0.1,1.2-0.3,1.7-0.4l1.2-0.3c0.7-0.2,1.3-0.3,2-0.5h0.1c1.1-0.3,2.2-0.6,3.3-0.9s2.4-0.5,3.5-0.8l0.6-0.1l0.3-0.1
			c1.2-0.3,2.4-0.5,3.6-0.5h0.5c1.5,0.1,3,0.5,4.4,1.1c0.6,0.3,1.2,0.6,1.8,1l0.2,0.1c0.7,0.4,1.4,0.9,2,1.5c0.5,0.5,0.9,1,1.3,1.6
			l0.2,0.2c0.4,0.6,0.8,1.2,1.1,1.8l-0.1-0.1l0.1,0.2v-0.1l0,0c0.3,0.6,0.5,1.1,0.6,1.7c0.3,0.8,0.5,1.5,0.6,2.2c0.2,1,0.4,2,0.5,3
			l0.1,0.6c0.1,1.3,0.1,2.5,0,3.8c-0.1,1-0.4,2-0.8,3c-0.4,0.9-0.9,1.7-1.6,2.4c-0.4,0.4-0.8,0.8-1.2,1.1l-0.3,0.2
			c-0.4,0.3-0.8,0.6-1.2,0.8c-0.8,0.5-1.6,0.9-2.5,1.2l-0.5,0.2l-1.9,0.7c-1.1,0.4-2.2,0.8-3.2,1.3c-0.6,0.3-1,0.5-1.5,0.8
			c-0.4,0.2-0.8,0.5-1.2,0.8c-1.1,0.9-2,1.9-2.9,2.9c-0.5,0.8-0.9,1.6-1.3,2.4l-0.3,0.5c-0.2,0.5-0.5,1-0.7,1.6s-0.4,0.9-0.6,1.3
			c-0.7,1.5-1.6,2.8-2.5,4.2l-0.3,0.4c-0.9,1.3-1.8,2.6-2.7,3.8l0.3-0.5c-0.9,1.4-1.9,2.7-3.1,3.8c-0.4,0.4-0.8,0.8-1.2,1.2
			c-0.7,0.7-1.5,1.4-2.2,1.9c-0.8,0.6-1.7,1.2-2.6,1.6c-0.6,0.3-1.3,0.6-1.9,0.8c-0.6,0.2-1.3,0.3-1.9,0.4h-0.1L293,132
			c-0.8,0.1-1.7,0.2-2.6,0.2C289.1,132.3,287.8,132.2,286.4,132z"/>
		<path class="st0" d="M362.6,132c-0.8-0.1-1.5-0.3-2.2-0.6c-1-0.3-2-0.7-3-1.2c-0.5-0.3-1-0.6-1.5-0.9c-0.9-0.6-1.8-1.3-2.7-2
			c-0.6-0.6-1.1-1.2-1.6-1.8l-0.3-0.3c-0.5-0.7-1-1.4-1.4-2.2c-1-1.9-1.6-3.9-1.9-6c-0.2-1.2-0.3-2.5-0.3-3.8c0-1.6,0.3-3.2,0.6-4.8
			c0.6-2.3,3.6-11.2,4.2-12.8c0.8-2.1,3-9.1,4.9-12.4c1.2-2.1,3.5-4.2,6-4.5c6.3-0.8,6.7,4.6,6.7,4.8l2-1.8c1.2-1.2,2.6-2.2,4-3.2
			c1.5-0.9,3.1-1.7,4.7-2.2c1.6-0.6,3.3-1.1,5-1.4l1-0.2l-0.7,0.1l0,0c2.3-0.4,4.6-0.6,6.9-0.6c1,0,2.1,0.1,3,0.1
			c3.3,0.3,6.5,1.1,9.6,2.4c3,1.1,5.8,2.5,8.5,4.1c1.7,1,3.3,2.2,4.8,3.5c1.5,1.3,2.9,2.7,4,4.3l0.1,0.1c0.9,1.2,1.7,2.4,2.5,3.7
			c0.8,1.6,1.5,3.2,2.1,4.9c0.4,1.4,0.7,2.9,0.8,4.3c0.2,1.4,0.3,2.9,0.3,4.4c-0.1,2.9-0.6,5.8-1.6,8.6c-0.5,1.4-1.1,2.7-1.9,4
			c-0.7,1.2-1.6,2.2-2.6,3.1c-1.2,1.1-2.5,2-3.9,2.9l-0.3,0.2c-1,0.7-2.1,1.4-3.2,2c-1.1,0.7-2.3,1.2-3.5,1.6
			c-1.2,0.4-2.5,0.8-3.7,0.9c-0.5,0.1-1,0.1-1.5,0.1H406c-0.8,0-1.6-0.2-2.3-0.4l-0.5-0.1l-0.5-0.1c-1.1-0.3-2.2-0.7-3.2-1.2
			c-0.7-0.3-1.4-0.6-2-1c-0.8-0.4-1.5-1-2.1-1.6c-0.7-0.7-1.3-1.5-1.9-2.2l-0.1-0.1c-0.7-1-1.4-2.1-1.9-3.2c-0.2-0.5-0.5-1-0.8-1.4
			c-0.6-0.6-1.2-1.2-1.9-1.7c-0.4-0.2-0.7-0.4-1.1-0.6l-0.4,0.4c-0.3,0.3-0.5,0.6-0.8,0.9c-0.5,0.5-0.9,1-1.3,1.6l-0.7,0.8l-0.2,0.2
			c-0.5,0.6-1.1,1.3-1.6,2c-1,1.4-2,2.6-3,3.8c-1.2,1.4-2.6,2.6-4.1,3.7c-1.6,1.2-3.5,2-5.5,2.4c-1.1,0.3-2.3,0.4-3.4,0.5h-0.6
			C365,132.3,363.8,132.2,362.6,132z"/>
		<path class="st0" d="M201.5,131.7c-1.9-0.4-3.8-0.9-5.6-1.7c-1.7-0.6-3.3-1.4-4.9-2.2c-1.5-0.8-2.8-1.8-4-3.1
			c-0.8-0.9-1.5-1.8-2.2-2.9c-0.5-0.9-0.9-1.7-1.3-2.6c-0.1-0.3-0.3-0.6-0.4-0.9c-0.6-1.5-1.1-3-1.4-4.6c-0.3-1.2-0.5-2.4-0.6-3.6
			c0-0.9,0-1.8,0.1-2.7c0.2-2.1,0.4-4.3,0.9-6.3c0.3-1.4,0.8-2.9,1.2-4.3l0.4-1.1c0.7-2.3,1.4-4.2,2.1-6c0.7-1.6,1.5-3.1,2.5-4.4
			c1.1-1.7,2.3-3.4,3.7-4.9c1.2-1.3,2.6-2.4,4.1-3.4c0.6-0.4,1.3-0.8,2-1.1c0.9-0.5,1.9-0.9,2.9-1.2c1-0.3,2.1-0.4,3.2-0.4
			c0.9,0,1.8,0.1,2.7,0.3c2.1,0.3,4.1,1.1,5.9,2.2c1.4,1,2.6,2.3,3.7,3.7c1,1.5,1.7,3.3,2,5.1c0.2,1,0.4,2,0.5,3
			c0.1,0.6,0.2,1.3,0.3,1.9v-0.1l0.1,0.5l0.1,0.6c0,0.1,0,0.1,0,0.2l0.1,0.8c0.1,0.7,0.3,1.5,0.4,2.3c0,0.3,0.1,0.6,0.1,0.9
			s0,0.5,0.1,0.7c0.1-0.2,0.2-0.3,0.3-0.5c0.6-0.8,1.2-1.6,1.9-2.3l0.1-0.1l0.6-0.7c1-1.1,2-2.2,3-3.2c1.8-1.8,3.9-3.4,6-4.8
			c1.7-1.1,3.6-2.1,5.6-2.7c0.4-0.1,0.8-0.2,1.2-0.3c0.5-0.1,1-0.2,1.6-0.2c0.3,0,0.6,0,0.9,0.1c1.4,0.1,2.7,0.6,3.9,1.3
			c1.3,0.9,2.5,2,3.5,3.2c0.9,1.1,1.6,2.5,2,3.9c0.9,3.8-0.2,7.8-1.5,11.2c-0.7,1.9-1.5,3.8-2.5,5.7c-0.7,1.2-1.5,2.4-2.2,3.6
			c-0.2,0.4-0.5,0.7-0.7,1.1c-2,3.2-4.4,6.1-7.1,8.7c-1.6,1.4-3.2,2.7-4.9,3.9c-1.7,1.2-3.4,2.3-5.2,3.3c-1.9,1-3.9,1.9-6,2.6
			c-0.7,0.2-1.4,0.5-2.1,0.7l-0.4,0.1c-0.9,0.3-1.9,0.5-2.8,0.7c-2.2,0.4-4.4,0.6-6.6,0.7h-1.1C205.5,132.3,203.5,132.1,201.5,131.7
			z"/>
		<path class="st0" d="M493,132.2c-1.1-0.1-2.2-0.4-3.3-0.8l-0.6-0.2c-1.6-0.4-3.1-1.1-4.6-1.9c-1.1-0.8-2-1.7-2.8-2.7
			c-0.7-0.9-1.3-2-1.7-3.1c-0.5-1.2-1-2.4-1.7-3.6c-0.3-0.5-0.7-1.1-1-1.5l-0.7,0.7c-0.2,0.2-0.4,0.4-0.6,0.6c-1,1-2.3,1.8-3.6,2.4
			c-1.6,0.6-3.3,1-5,1.1c-1.6,0.2-3.1,0.3-4.7,0.5c-0.7,0.1-1.5,0.2-2.2,0.2c-0.3,0-0.7,0-1,0h-0.4c-1,0-2-0.2-2.9-0.6
			c-0.7-0.2-1.5-0.5-2.3-0.8c-1.6-0.6-3.1-1.6-4.2-3c-1-1.3-1.8-2.8-2.3-4.3c-0.6-1.7-0.8-3.6-0.4-5.4c0.5-3.2,1.8-6.3,3.7-8.9
			c1-1.3,2-2.5,3.1-3.7L454,97c1.2-1.4,2.4-2.7,3.7-3.9c2.5-2.2,5-4.3,7.7-6.2c2.9-2,6-3.9,9.1-5.5c2.9-1.6,5.9-3,9-4.2
			c0.8-0.3,1.5-0.6,2.3-0.9l0.3-0.1l0.5-0.2c0.6-0.2,1.5-0.5,2.3-0.8c2.3-0.6,4.6-0.9,7-0.9c1.5,0,3,0.1,4.5,0.4
			c1.9,0.3,3.7,0.8,5.4,1.6c1.7,0.9,3.3,2,4.5,3.5l0.4,0.4c0.9,0.9,1.8,1.9,2.6,3c0.5,0.7,1,1.5,1.3,2.4c0.3,0.7,0.5,1.5,0.6,2.2
			c0.4,1.6,0.6,3.3,0.6,5c0,1.5,0,2.9,0,4.2c0,0.8-0.1,1.6-0.1,2.5c-0.1,2-0.1,4-0.3,6c-0.2,1.5-0.4,3-0.6,4.4l-0.1,0.6
			c-0.2,1.4-0.5,2.8-0.8,4c-0.6,2.6-1.4,5-2.5,7.4l-0.1,0.2c-0.3,0.8-0.7,1.6-1.2,2.3c-0.6,0.8-1.2,1.6-2,2.3
			c-1.1,1-2.3,1.9-3.5,2.6c-1.1,0.6-2.3,1.1-3.5,1.5l-0.5,0.2l-0.2,0.1c-1,0.4-2,0.8-3.1,1c-0.9,0.2-1.7,0.2-2.6,0.2
			C494.2,132.3,493.6,132.3,493,132.2z"/>
	</g>
</g>
<g>
	<g>
		<path class="st0" d="M102,44.6V16.8h22.6c1.1,0,2,0.3,2.9,0.8c0.9,0.5,1.6,1.2,2.1,2.1c0.5,0.9,0.8,1.8,0.8,2.9v22h-3.9v-22
			c0-0.5-0.2-1-0.6-1.3c-0.4-0.4-0.8-0.6-1.3-0.6h-16.7c-0.5,0-1,0.2-1.3,0.6c-0.4,0.4-0.6,0.8-0.6,1.3v22H102z"/>
		<path class="st0" d="M135.3,11.6V7.7h3.9v3.9H135.3z M135.3,44.6V16.8h3.9v27.8H135.3z"/>
		<path class="st0" d="M148.1,43.8c-0.9-0.5-1.6-1.2-2.1-2.1c-0.5-0.9-0.8-1.8-0.8-2.9V22.6c0-1.1,0.3-2,0.8-2.9
			c0.5-0.9,1.2-1.6,2.1-2.1c0.9-0.5,1.8-0.8,2.9-0.8h16.7c1.1,0,2.1,0.3,3,0.8c0.9,0.5,1.6,1.2,2.1,2.1c0.5,0.9,0.8,1.8,0.8,2.9
			v10.1h-24.4v6.1c0,0.5,0.2,1,0.6,1.3c0.4,0.4,0.8,0.6,1.3,0.6h22.6v3.9H151C150,44.6,149,44.4,148.1,43.8z M149.2,28.7h20.4v-6.1
			c0-0.5-0.2-1-0.6-1.3c-0.4-0.4-0.8-0.6-1.3-0.6H151c-0.5,0-1,0.2-1.3,0.6c-0.4,0.4-0.6,0.8-0.6,1.3V28.7z"/>
		<path class="st0" d="M178.6,44.6V16.8h36.8c1.1,0,2.1,0.3,3,0.8c0.9,0.5,1.6,1.2,2.1,2.1c0.5,0.9,0.8,1.8,0.8,2.9v22h-3.9v-22
			c0-0.5-0.2-1-0.6-1.3c-0.4-0.4-0.8-0.6-1.3-0.6h-11.6c-0.5,0-1,0.2-1.3,0.6c-0.4,0.4-0.6,0.8-0.6,1.3v22h-4v-22
			c0-0.5-0.2-1-0.6-1.3c-0.4-0.4-0.8-0.6-1.3-0.6h-11.6c-0.5,0-1,0.2-1.3,0.6c-0.4,0.4-0.6,0.8-0.6,1.3v22H178.6z"/>
		<path class="st0" d="M231.3,44.6c-1.1,0-2-0.3-2.9-0.8c-0.9-0.5-1.6-1.2-2.1-2.1c-0.5-0.9-0.8-1.8-0.8-2.9V28.7h24.4v-6.1
			c0-0.5-0.2-1-0.6-1.3c-0.4-0.4-0.8-0.6-1.3-0.6h-22.5v-3.9H248c1.1,0,2.1,0.3,3,0.8c0.9,0.5,1.6,1.2,2.1,2.1
			c0.5,0.9,0.8,1.8,0.8,2.9v22H231.3z M231.3,40.7h18.6v-8h-20.4v6.1c0,0.5,0.2,1,0.6,1.3C230.3,40.5,230.7,40.7,231.3,40.7z"/>
		<path class="st0" d="M258.9,44.6V16.8h22.6c1.1,0,2,0.3,2.9,0.8c0.9,0.5,1.6,1.2,2.1,2.1c0.5,0.9,0.8,1.8,0.8,2.9v22h-3.9v-22
			c0-0.5-0.2-1-0.6-1.3c-0.4-0.4-0.8-0.6-1.3-0.6h-16.7c-0.5,0-1,0.2-1.3,0.6c-0.4,0.4-0.6,0.8-0.6,1.3v22H258.9z"/>
		<path class="st0" d="M292.3,20.2V10h3.9v4.7c0,0.9-0.2,1.7-0.5,2.4c-0.3,0.8-0.8,1.4-1.4,1.9C293.7,19.6,293,20,292.3,20.2z"/>
		<path class="st0" d="M302.8,43.8c-0.9-0.5-1.6-1.2-2.1-2.1c-0.5-0.9-0.8-1.8-0.8-2.9v-0.4h3.9v0.4c0,0.5,0.2,1,0.6,1.3
			c0.4,0.4,0.8,0.6,1.3,0.6h16.7c0.5,0,1-0.2,1.3-0.6c0.4-0.4,0.6-0.8,0.6-1.3v-4.3c0-0.5-0.2-1-0.6-1.3c-0.4-0.4-0.8-0.6-1.3-0.6
			h-16.7c-1.1,0-2-0.3-2.9-0.8c-0.9-0.5-1.6-1.2-2.1-2.1c-0.5-0.9-0.8-1.8-0.8-2.9v-4.3c0-1.1,0.3-2,0.8-2.9
			c0.5-0.9,1.2-1.6,2.1-2.1c0.9-0.5,1.8-0.8,2.9-0.8h16.7c1.1,0,2.1,0.3,3,0.8c0.9,0.5,1.6,1.2,2.1,2.1c0.5,0.9,0.8,1.8,0.8,2.9V23
			h-4v-0.4c0-0.5-0.2-1-0.6-1.3c-0.4-0.4-0.8-0.6-1.3-0.6h-16.7c-0.5,0-1,0.2-1.3,0.6c-0.4,0.4-0.6,0.8-0.6,1.3v4.3
			c0,0.5,0.2,1,0.6,1.3c0.4,0.4,0.8,0.6,1.3,0.6h16.7c1.1,0,2.1,0.3,3,0.8c0.9,0.5,1.6,1.2,2.1,2.1c0.5,0.9,0.8,1.8,0.8,2.9v4.3
			c0,1.1-0.3,2-0.8,2.9c-0.5,0.9-1.2,1.6-2.1,2.1s-1.9,0.8-3,0.8h-16.7C304.7,44.6,303.7,44.4,302.8,43.8z"/>
	</g>
</g>
</svg>
